<svg width="46" height="45" viewBox="0 0 46 45" fill="none" xmlns="http://www.w3.org/2000/svg">
<path d="M28.7502 5.625H17.2502C13.016 5.625 9.5835 8.98286 9.5835 13.125V28.125" stroke="#222222"/>
<path d="M15.8335 21.5625C15.8335 19.3516 15.8343 17.7363 15.9787 16.4827C16.122 15.2399 16.4009 14.4149 16.9151 13.7593C17.1939 13.4039 17.5194 13.0854 17.8833 12.8123C18.5563 12.307 19.4044 12.0328 20.6788 11.8923C21.9625 11.7507 23.6159 11.75 25.8752 11.75C28.1344 11.75 29.7879 11.7507 31.0716 11.8923C32.3459 12.0328 33.194 12.307 33.867 12.8123C34.231 13.0854 34.5564 13.4039 34.8352 13.7593C35.3494 14.4149 35.6284 15.2399 35.7716 16.4827C35.9161 17.7363 35.9168 19.3516 35.9168 21.5625V29.0625C35.9168 31.2734 35.9161 32.8887 35.7716 34.1423C35.6284 35.3851 35.3494 36.2101 34.8352 36.8657C34.5564 37.2211 34.231 37.5396 33.867 37.8127C33.194 38.318 32.3459 38.5922 31.0716 38.7327C29.7879 38.8743 28.1344 38.875 25.8752 38.875C23.6159 38.875 21.9625 38.8743 20.6788 38.7327C19.4044 38.5922 18.5563 38.318 17.8833 37.8127C17.5194 37.5396 17.1939 37.2211 16.9151 36.8657C16.4009 36.2101 16.122 35.3851 15.9787 34.1423C15.8343 32.8887 15.8335 31.2734 15.8335 29.0625V21.5625Z" stroke="#222222"/>
</svg>
